<svg width="18" height="19" viewBox="0 0 18 19" fill="none" xmlns="http://www.w3.org/2000/svg">
<path d="M5.06449 9.05801L8.31609 1.74192C8.96287 1.74192 9.58316 1.99885 10.0405 2.4562C10.4979 2.91354 10.7548 3.53383 10.7548 4.18062V7.43221H15.3558C15.5915 7.42954 15.8249 7.47814 16.0399 7.57465C16.2549 7.67115 16.4464 7.81325 16.601 7.99109C16.7557 8.16894 16.8698 8.37828 16.9355 8.60462C17.0012 8.83095 17.017 9.06887 16.9816 9.30188L15.8598 16.618C15.801 17.0056 15.6041 17.359 15.3053 17.613C15.0066 17.8669 14.6261 18.0043 14.234 17.9999H5.06449M5.06449 9.05801V17.9999M5.06449 9.05801H2.6258C2.19461 9.05801 1.78108 9.2293 1.47618 9.53419C1.17129 9.83909 1 10.2526 1 10.6838V16.3741C1 16.8053 1.17129 17.2188 1.47618 17.5237C1.78108 17.8286 2.19461 17.9999 2.6258 17.9999H5.06449" stroke="white" stroke-width="2" stroke-linecap="round" stroke-linejoin="round"/>
</svg>
