<svg width="24" height="20" viewBox="0 0 48 40" fill="none" xmlns="http://www.w3.org/2000/svg">
<path d="M46 4V16M46 16H34M46 16L36.72 7.28C34.5705 5.12943 31.9113 3.55841 28.9904 2.71355C26.0695 1.86868 22.9822 1.7775 20.0166 2.44852C17.0509 3.11953 14.3036 4.53087 12.0309 6.55084C9.75827 8.57081 8.03434 11.1336 7.02 14M2 36V24M2 24H14M2 24L11.28 32.72C13.4295 34.8706 16.0887 36.4416 19.0096 37.2865C21.9305 38.1313 25.0178 38.2225 27.9834 37.5515C30.9491 36.8805 33.6964 35.4691 35.9691 33.4492C38.2417 31.4292 39.9657 28.8664 40.98 26" stroke="white" stroke-width="4" stroke-linecap="round" stroke-linejoin="round"/>
</svg>
